<?xml version="1.0" standalone="no"?>
<!DOCTYPE svg PUBLIC "-//W3C//DTD SVG 20010904//EN"
 "http://www.w3.org/TR/2001/REC-SVG-20010904/DTD/svg10.dtd">
<svg version="1.0" xmlns="http://www.w3.org/2000/svg"
 width="576.000000pt" height="576.000000pt" viewBox="0 0 576.000000 576.000000"
 preserveAspectRatio="xMidYMid meet">
<metadata>
Created by potrace 1.11, written by Peter Selinger 2001-2013
</metadata>
<g transform="translate(0.000000,576.000000) scale(0.100000,-0.100000)"
fill="#000000" stroke="none">
<path d="M566 5122 c-2 -1 -45 -4 -97 -6 -126 -6 -189 -27 -275 -92 -62 -47
-87 -76 -127 -144 -72 -121 -67 23 -67 -1988 0 -1169 3 -1828 10 -1863 38
-204 219 -369 424 -385 81 -6 154 -6 164 0 4 2 14 1 20 -3 7 -4 33 -5 57 -1
25 4 45 4 45 1 0 -3 26 -5 57 -4 32 1 58 2 58 3 0 1 28 2 63 3 34 1 62 0 62
-3 0 -3 26 -4 57 -3 32 1 58 2 58 3 0 1 28 2 63 3 34 1 62 0 62 -3 0 -3 26 -4
57 -3 32 1 58 2 58 3 0 1 28 2 63 3 34 1 62 0 62 -3 0 -3 26 -4 57 -3 32 1 58
2 58 3 0 1 28 2 63 3 34 1 62 0 62 -3 0 -3 26 -4 57 -3 32 1 58 2 58 3 0 1 28
2 63 3 34 1 62 0 62 -3 0 -3 26 -4 57 -3 32 1 58 2 58 3 0 1 28 2 63 3 34 1
62 0 62 -3 0 -3 26 -4 57 -3 32 1 58 2 58 3 0 1 28 2 63 3 34 1 62 0 62 -3 0
-3 26 -4 57 -3 32 1 58 2 58 3 0 1 28 2 63 3 34 1 62 0 62 -3 0 -3 26 -4 57
-3 32 1 58 2 58 3 0 1 28 2 63 3 34 1 62 0 62 -3 0 -3 26 -4 57 -3 32 1 58 2
58 3 0 1 28 2 63 3 34 1 62 0 62 -3 0 -3 26 -4 57 -3 32 1 58 2 58 3 0 1 28 2
63 3 34 1 62 0 62 -3 0 -3 26 -4 57 -3 32 1 58 2 58 3 0 1 28 2 63 3 34 1 62
0 62 -3 0 -3 26 -4 57 -3 32 1 58 2 58 3 0 1 28 2 63 3 34 1 62 0 62 -3 0 -3
26 -4 57 -3 32 1 58 2 58 3 0 1 28 2 63 3 34 1 62 0 62 -3 0 -3 26 -4 57 -3
32 1 58 2 58 3 0 1 28 2 63 3 34 1 62 0 62 -3 0 -3 26 -4 57 -3 32 1 58 2 58
3 0 1 28 2 63 3 34 1 62 0 62 -3 0 -3 26 -4 57 -3 32 1 58 2 58 3 0 1 28 2 63
3 34 1 62 0 62 -3 0 -3 26 -4 57 -3 32 1 58 2 58 3 0 1 28 2 63 3 34 1 62 0
62 -3 0 -3 26 -4 57 -3 32 1 69 2 83 3 14 0 48 1 75 1 75 1 76 1 130 11 61 12
168 67 213 109 60 56 110 133 136 209 l25 75 -2 1840 c-2 1012 -5 1849 -8
1860 -17 73 -68 170 -117 221 -85 89 -196 141 -319 150 -43 3 -81 8 -85 10 -4
2 -9 0 -13 -6 -4 -6 -10 -8 -15 -5 -5 3 -30 5 -57 5 -26 0 -57 0 -68 0 -11 0
-38 0 -60 -1 -38 -1 -47 0 -77 2 -14 1 -112 0 -168 -2 -19 -1 -41 -1 -47 0
-30 2 -41 3 -93 2 -30 -1 -97 -1 -148 0 -51 0 -95 -1 -97 -3 -2 -2 -33 -1 -69
2 -36 3 -72 3 -80 0 -9 -3 -50 -3 -92 0 -42 3 -77 3 -79 0 -2 -3 -33 -3 -69 0
-36 3 -72 3 -80 0 -8 -3 -56 -3 -106 0 -49 3 -90 3 -90 0 0 -3 -27 -5 -60 -5
-33 0 -60 2 -60 5 0 3 -26 4 -57 3 -32 -1 -58 -2 -58 -3 0 -1 -28 -2 -63 -3
-34 -1 -62 0 -62 3 0 3 -28 4 -62 2 -35 -1 -88 -2 -118 -1 -30 0 -62 0 -70 0
-8 -1 -31 -1 -50 0 -19 0 -42 0 -50 0 -8 0 -40 0 -70 0 -30 1 -64 0 -75 -1
-11 -1 -24 -1 -30 -1 -62 0 -92 0 -105 0 -8 0 -70 0 -138 1 -68 1 -125 1 -127
-2 -2 -2 -33 -1 -69 2 -36 3 -72 3 -80 0 -9 -3 -50 -3 -92 0 -42 3 -78 2 -81
-3 -2 -4 -8 -5 -12 -3 -8 5 -43 6 -226 7 -49 0 -94 0 -100 0 -12 1 -108 0
-155 -2 -19 -1 -41 -1 -47 0 -7 1 -19 1 -25 2 -14 1 -112 0 -168 -2 -19 -1
-41 -1 -47 0 -7 1 -19 1 -25 2 -14 1 -112 0 -168 -2 -19 -1 -41 -1 -47 0 -7 1
-19 1 -25 2 -14 1 -112 0 -168 -2 -19 -1 -41 -1 -47 0 -30 2 -41 3 -93 2 -30
-1 -93 0 -138 1 -46 2 -85 2 -86 0z m46 -1127 c5 5 44 6 173 6 55 0 107 0 115
0 8 1 56 1 105 0 50 0 97 0 105 0 8 0 80 0 160 0 80 0 152 0 160 0 8 0 69 0
135 0 213 -2 289 -2 335 0 25 0 50 1 55 0 16 0 209 0 225 0 8 1 56 1 105 0 50
0 97 0 105 0 8 0 69 0 135 0 213 -2 289 -2 335 0 25 0 50 1 55 0 37 -1 212 -2
220 0 6 1 13 1 16 1 16 -3 281 -3 349 -1 25 0 50 1 55 0 6 0 55 0 110 0 55 -1
152 -1 215 -2 63 0 122 0 130 0 8 0 42 0 75 0 33 0 67 0 75 0 8 0 47 0 85 0
39 0 77 0 85 0 8 0 42 0 75 0 61 0 212 2 230 2 6 0 64 0 130 0 66 -1 158 -1
205 -1 47 0 113 -1 148 -3 34 -1 62 0 62 3 0 3 21 3 48 0 55 -6 53 -1 53 -165
0 -36 0 -71 1 -77 0 -7 -1 -29 -2 -48 -1 -19 -1 -66 -1 -105 0 -38 0 -77 0
-85 0 -8 0 -42 0 -75 0 -33 0 -67 0 -75 0 -8 0 -46 0 -85 0 -38 0 -77 0 -85 0
-8 0 -42 0 -75 0 -33 0 -67 0 -75 0 -8 0 -46 0 -85 0 -38 0 -77 0 -85 0 -8 0
-42 0 -75 0 -33 0 -67 0 -75 0 -8 0 -46 0 -85 0 -38 0 -77 0 -85 0 -8 0 -42 0
-75 0 -33 0 -67 0 -75 0 -8 0 -46 0 -85 0 -38 0 -77 0 -85 0 -8 0 -42 0 -75 0
-33 0 -67 0 -75 0 -8 0 -46 0 -85 0 -38 0 -77 0 -85 0 -8 0 -42 0 -75 0 -33 0
-67 0 -75 0 -8 0 -46 0 -85 0 -38 0 -77 0 -85 0 -8 0 -42 0 -75 0 -70 0 -66 0
-210 0 -60 0 -116 0 -122 0 -7 1 -24 2 -38 1 -14 -1 -28 -3 -31 -4 -4 -71 -5
-118 -3 -8 1 -31 0 -50 -1 -19 0 -80 -1 -135 -1 -55 0 -107 0 -115 0 -8 -1
-55 -1 -105 0 -49 0 -99 0 -110 0 -25 0 -227 -1 -240 0 -17 0 -139 0 -157 0
-10 0 -47 0 -83 0 -36 0 -71 0 -77 0 -7 0 -42 0 -78 0 -36 0 -72 0 -80 0 -8 0
-62 0 -120 0 -58 0 -112 0 -120 0 -8 0 -69 0 -135 0 -344 2 -386 2 -396 -5 -5
-3 -9 -2 -9 3 0 4 -27 6 -60 5 -59 -4 -60 -3 -51 20 4 12 5 32 1 43 -4 11 -6
23 -4 27 7 10 6 96 0 176 -13 154 -90 282 -243 403 -11 9 -51 31 -89 49 -98
46 -106 49 -136 54 -15 3 -32 7 -38 11 -5 3 -51 8 -103 11 -84 4 -104 1 -191
-26 -53 -16 -118 -33 -144 -37 -57 -9 -293 -9 -342 0 -35 7 -46 10 -178 46
-70 19 -180 22 -252 7 -14 -3 -38 -9 -55 -12 -16 -4 -36 -10 -45 -14 -8 -4
-50 -24 -92 -45 -184 -89 -310 -265 -324 -453 -3 -43 -7 -78 -9 -80 -1 -2 1
-18 5 -36 4 -19 4 -39 0 -45 -4 -7 -4 -31 0 -55 l6 -44 -115 -2 c-122 -2 -122
-2 -173 2 -31 3 -33 5 -38 51 -3 26 -3 47 0 47 3 0 4 28 3 62 -2 35 -3 101 -3
148 0 47 0 139 -1 205 0 66 0 127 0 135 0 8 0 62 0 120 0 58 0 112 0 120 0 8
0 44 0 80 0 36 0 71 0 78 0 6 0 41 0 77 0 36 0 73 0 83 0 18 0 140 0 157 -1
13 0 215 0 240 0 11 0 61 0 110 -1 50 -1 97 0 105 0 16 0 209 0 225 -1 6 0 30
0 55 2 46 2 122 0 335 0 66 0 126 0 133 2 129 2 260 0 267 -6 33 3 44 39 47
20 2 49 0 64 -4 14 -3 28 -5 30 -3z"/>
<path d="M3668 3525 c-2 -2 -23 -4 -48 -6 -25 -2 -54 -9 -66 -16 -24 -15 -47
-60 -35 -67 4 -3 5 -28 1 -56 -4 -28 -3 -53 2 -56 5 -3 6 -10 2 -15 -3 -6 -3
-26 0 -45 9 -48 46 -65 136 -64 25 0 54 1 65 0 11 0 38 0 60 1 38 1 47 0 78
-2 13 -1 111 0 167 2 19 1 41 1 48 0 6 -1 18 -1 25 -2 13 -1 111 0 167 2 19 1
41 1 48 0 6 -1 18 -1 25 -2 13 -1 111 0 167 2 19 1 41 1 48 0 18 -2 41 -2 101
-1 29 0 56 -1 58 -4 9 -8 56 23 73 48 12 20 15 38 10 76 -4 28 -3 50 1 50 4 0
5 8 3 18 -2 9 -5 34 -8 54 -2 20 -11 44 -19 53 -21 20 -61 35 -75 26 -6 -4
-38 -4 -71 -1 -33 3 -67 3 -75 0 -8 -3 -56 -3 -106 0 -49 3 -90 3 -90 0 0 -3
-27 -5 -60 -5 -33 0 -60 2 -60 5 0 6 -109 4 -116 -2 -2 -3 -24 -2 -49 2 -24 4
-50 3 -57 -1 -6 -4 -15 -6 -20 -3 -10 6 -248 7 -254 1 -3 -2 -20 -1 -39 3 -19
4 -35 6 -37 5z"/>
<path d="M1775 3504 c-33 -8 -73 -22 -90 -31 -16 -9 -31 -16 -33 -14 -2 1 -28
-12 -59 -29 -91 -51 -193 -162 -241 -261 -23 -46 -44 -98 -47 -116 -3 -18 -9
-42 -14 -55 -8 -22 -7 -217 2 -248 2 -8 9 -35 16 -60 43 -151 178 -309 324
-379 103 -49 157 -63 267 -67 96 -4 190 13 265 47 28 12 52 23 55 24 24 5 107
71 163 128 75 77 136 188 160 292 14 62 16 224 2 280 -4 17 -8 37 -10 45 -2 8
-4 16 -5 18 -2 1 -3 5 -5 10 -1 4 -8 21 -15 37 -7 17 -14 32 -14 35 -4 23 -77
122 -124 168 -72 71 -93 86 -162 122 -48 24 -80 36 -160 57 -41 11 -221 9
-275 -3z"/>
<path d="M3668 2885 c-2 -2 -23 -4 -48 -6 -25 -2 -54 -9 -66 -16 -24 -15 -47
-60 -35 -67 4 -3 5 -28 1 -56 -4 -28 -3 -53 2 -56 5 -3 6 -10 2 -15 -11 -19 7
-79 27 -90 35 -19 60 -21 202 -18 6 0 49 -1 95 -2 45 -1 84 0 86 2 3 3 34 2
70 -1 36 -3 72 -3 80 0 9 3 50 3 92 0 42 -3 78 -2 81 3 2 4 8 5 12 3 4 -3 37
-5 72 -6 74 0 237 -1 259 -1 80 2 114 1 117 -3 9 -8 56 23 73 48 12 20 15 38
10 76 -4 28 -3 50 1 50 4 0 5 8 3 18 -2 9 -5 34 -8 55 -5 52 -48 87 -91 77 -5
-1 -14 -2 -20 -2 -70 1 -150 2 -243 2 -62 0 -116 2 -121 4 -4 3 -13 1 -20 -3
-7 -5 -30 -5 -51 -1 -22 4 -42 5 -44 3 -7 -7 -126 -9 -126 -3 0 3 -25 5 -55 5
-30 0 -55 -2 -55 -5 0 -3 -45 -3 -101 0 -55 3 -108 2 -117 -1 -9 -3 -31 -3
-49 1 -18 4 -33 6 -35 5z"/>
<path d="M3616 2239 c-75 -8 -95 -31 -97 -109 -1 -30 -1 -58 -1 -61 1 -3 2
-27 3 -53 3 -52 38 -102 64 -92 8 3 15 2 15 -2 0 -4 35 -6 77 -5 43 1 132 2
198 2 66 0 136 1 155 2 19 0 41 1 48 0 6 -1 18 -1 25 -2 13 -1 111 0 167 2 19
1 41 1 48 0 6 -1 18 -1 25 -2 13 -1 111 0 167 2 19 1 41 1 48 0 18 -2 41 -2
101 -1 29 0 56 -1 58 -4 9 -8 56 23 73 48 12 20 15 38 10 76 -4 28 -3 50 1 50
4 0 5 8 3 18 -2 9 -5 34 -8 54 -2 20 -11 44 -19 53 -21 20 -61 35 -75 26 -6
-4 -38 -4 -71 -1 -33 3 -67 3 -75 0 -8 -3 -56 -3 -106 0 -49 3 -90 1 -90 -3 0
-5 -4 -6 -9 -3 -11 7 -220 11 -226 4 -3 -3 -25 -2 -50 2 -24 4 -49 4 -55 0 -6
-4 -30 -4 -53 -1 -23 3 -78 4 -122 1 -44 -3 -100 -3 -125 0 -25 3 -72 2 -104
-1z"/>
</g>
</svg>
